<svg width="32" height="32" viewBox="0 0 32 32" fill="none" xmlns="http://www.w3.org/2000/svg">
<path d="M17.9867 7.30666C19.4533 7.30666 20.6533 6.10666 20.6533 4.64C20.6533 3.17333 19.4533 1.97333 17.9867 1.97333C16.52 1.97333 15.32 3.17333 15.32 4.64C15.32 6.10666 16.52 7.30666 17.9867 7.30666ZM12.2313 25.6489C12.7629 25.7552 13.2824 25.4186 13.4026 24.89L14.52 19.9733L17.32 22.64V29.3067C17.32 30.043 17.917 30.64 18.6533 30.64V30.64C19.3897 30.64 19.9867 30.043 19.9867 29.3067V21.0686C19.9867 20.7949 19.8745 20.5332 19.6763 20.3444L17.1867 17.9733L17.9867 13.9733C19.454 15.6664 21.5902 16.8817 23.9908 17.2149C24.7202 17.3161 25.32 16.7097 25.32 15.9733V15.9733C25.32 15.237 24.7175 14.6537 23.9943 14.515C22.053 14.1425 20.4613 12.9705 19.5867 11.44L18.2533 9.30666C17.72 8.50666 16.92 7.97333 15.9867 7.97333C15.5867 7.97333 15.1974 7.97333 14.92 8.10666L8.59702 10.7818C8.22705 10.9383 7.98667 11.301 7.98667 11.7027V15.9733C7.98667 16.7097 8.58362 17.3067 9.32 17.3067V17.3067C10.0564 17.3067 10.6533 16.7097 10.6533 15.9733V12.7733L13.0533 11.84L10.92 22.64L5.72156 21.5791C4.98516 21.4288 4.26687 21.9056 4.11948 22.6426V22.6426C3.97249 23.3775 4.44912 24.0925 5.18405 24.2395L12.2313 25.6489Z" fill="black"/>
</svg>
