<svg width="25" height="24" viewBox="0 0 25 24" fill="none" xmlns="http://www.w3.org/2000/svg">
<g id="search 1" clip-path="url(#clip0_8_13973)">
<path id="Vector" d="M6.0467 14.3046L5.23977 17.317L2.29047 17.3794C1.40907 15.7446 0.909119 13.8742 0.909119 11.8865C0.909119 9.96444 1.37656 8.15191 2.20513 6.55594H2.20576L4.83146 7.03732L5.98168 9.64727C5.74094 10.3491 5.60973 11.1025 5.60973 11.8865C5.60982 12.7373 5.76394 13.5525 6.0467 14.3046Z" fill="#FBBB00"/>
<path id="Vector_2" d="M23.8883 9.72084C24.0214 10.422 24.0908 11.1461 24.0908 11.8862C24.0908 12.716 24.0036 13.5255 23.8374 14.3063C23.2731 16.9633 21.7988 19.2833 19.7564 20.9252L19.7558 20.9245L16.4485 20.7558L15.9805 17.8338C17.3357 17.0391 18.3948 15.7952 18.9527 14.3063H12.7548V9.72084H19.0431H23.8883Z" fill="#518EF8"/>
<path id="Vector_3" d="M19.7557 20.9249L19.7564 20.9255C17.77 22.5221 15.2467 23.4774 12.5 23.4774C8.08586 23.4774 4.24814 21.0102 2.29041 17.3794L6.04663 14.3047C7.02547 16.9171 9.54555 18.7767 12.5 18.7767C13.7698 18.7767 14.9595 18.4335 15.9804 17.8342L19.7557 20.9249Z" fill="#28B446"/>
<path id="Vector_4" d="M19.8985 2.96393L16.1435 6.03806C15.087 5.37765 13.8381 4.99614 12.5 4.99614C9.47875 4.99614 6.91155 6.94111 5.98174 9.64718L2.20577 6.55585H2.20514C4.13421 2.83657 8.02033 0.295486 12.5 0.295486C15.3124 0.295486 17.8911 1.29729 19.8985 2.96393Z" fill="#F14336"/>
</g>
<defs>
<clipPath id="clip0_8_13973">
<rect width="23.1818" height="23.1818" fill="white" transform="translate(0.909119 0.295486)"/>
</clipPath>
</defs>
</svg>
